<!DOCTYPE svg PUBLIC "-//W3C//DTD SVG 1.1//EN" "http://www.w3.org/Graphics/SVG/1.1/DTD/svg11.dtd">

<!-- Uploaded to: SVG Repo, www.svgrepo.com, Transformed by: SVG Repo Mixer Tools -->
<svg fill="#2e2e2e" height="800px" width="800px" version="1.1" id="Layer_1" xmlns="http://www.w3.org/2000/svg" xmlns:xlink="http://www.w3.org/1999/xlink" viewBox="0 0 512 512" xml:space="preserve" stroke="#2e2e2e">

<g id="SVGRepo_bgCarrier" stroke-width="0"/>

<g id="SVGRepo_tracerCarrier" stroke-linecap="round" stroke-linejoin="round"/>

<g id="SVGRepo_iconCarrier"> <g> <g> <g> <path d="M256,192c-47.061,0-85.333,38.272-85.333,85.333s38.272,85.333,85.333,85.333s85.333-38.272,85.333-85.333 S303.061,192,256,192z"/> <path d="M449.515,128h-23.083c-2.624,0-4.885-1.771-5.547-4.309l-11.072-44.416c-5.419-21.547-24.704-36.608-46.912-36.608 H149.099c-22.208,0-41.493,15.061-46.933,36.629l-11.051,44.373c-0.661,2.56-2.923,4.331-5.547,4.331H62.485 C28.011,128,0,156.011,0,190.464v216.405c0,34.453,28.011,62.464,62.485,62.464h387.029c34.475,0,62.485-28.011,62.485-62.464 V190.464C512,156.011,483.989,128,449.515,128z M256,405.333c-70.592,0-128-57.408-128-128c0-70.592,57.408-128,128-128 s128,57.408,128,128C384,347.925,326.592,405.333,256,405.333z M426.667,234.667c-11.776,0-21.333-9.557-21.333-21.333 S414.891,192,426.667,192S448,201.557,448,213.333S438.443,234.667,426.667,234.667z"/> </g> </g> </g> </g>

</svg>